<svg xmlns="http://www.w3.org/2000/svg" viewBox="0 0 48 48">
  <path fill="#36C5F0" d="M12.2 30.7a3.7 3.7 0 1 1-3.7-3.7h3.7v3.7z"/>
  <path fill="#2EB67D" d="M13.9 30.7a3.7 3.7 0 0 1 3.7-3.7h9.3v3.7a3.7 3.7 0 0 1-3.7 3.7h-9.3v-3.7z"/>
  <path fill="#ECB22E" d="M33.9 13.3a3.7 3.7 0 1 1 3.7-3.7v3.7h-3.7z"/>
  <path fill="#E01E5A" d="M30.2 13.3a3.7 3.7 0 0 1 3.7 3.7v9.3h-3.7a3.7 3.7 0 0 1-3.7-3.7v-9.3h3.7z"/>
  <path fill="#36C5F0" d="M33.9 30.7a3.7 3.7 0 1 1 3.7-3.7v3.7h-3.7z"/>
  <path fill="#2EB67D" d="M30.2 30.7a3.7 3.7 0 0 1 3.7 3.7v9.3h-3.7a3.7 3.7 0 0 1-3.7-3.7v-9.3h3.7z"/>
  <path fill="#ECB22E" d="M13.9 13.3a3.7 3.7 0 1 1 3.7-3.7v3.7h-3.7z"/>
  <path fill="#E01E5A" d="M10.2 13.3a3.7 3.7 0 0 1 3.7 3.7v9.3H10.2a3.7 3.7 0 0 1-3.7-3.7v-9.3h3.7z"/>
</svg>